<mxfile host="app.diagrams.net" modified="2022-07-16T09:12:40.790Z" agent="5.0 (Macintosh; Intel Mac OS X 10_15_7) AppleWebKit/537.36 (KHTML, like Gecko) Chrome/103.0.0.0 Safari/537.36" etag="rFRQ5YDSolgylIkc6lNG" version="17.5.0" type="github">
  <diagram id="ZO_DnmITsA0flge0qL-i" name="Page-1">
    <mxGraphModel dx="1081" dy="751" grid="1" gridSize="10" guides="1" tooltips="1" connect="1" arrows="1" fold="1" page="1" pageScale="1" pageWidth="850" pageHeight="1100" math="0" shadow="0">
      <root>
        <mxCell id="0" />
        <mxCell id="1" parent="0" />
        <mxCell id="xMPKRWt-Jt2GtvXIc6tI-1" value="hello, world" style="rounded=1;whiteSpace=wrap;html=1;" vertex="1" parent="1">
          <mxGeometry x="410" y="220" width="120" height="60" as="geometry" />
        </mxCell>
      </root>
    </mxGraphModel>
  </diagram>
</mxfile>
